/* XPM */
static char * html_xpm[] = {
"23 29 12 1",
" 	c #6C6E6C",
".	c #D4D6D8",
"X	c #042A2C",
"o	c #00669C",
"O	c #30669C",
"+	c #309A9C",
"@	c #9CB29C",
"#	c #309A64",
"$	c #64AEAC",
"%	c #009A9C",
"&	c #309ACC",
"*	c #009ACC",
"                       ",
" ..................... ",
" .                   . ",
" . ................. . ",
" . ................. . ",
" . XoXXXXXoXXXXoXXXX . ",
" . XXooXoXooooooXooX . ",
" . ....oXoXoXoO....+ . ",
" . oX...oooooooo.@oo . ",
" . oo...@ooooooo.@oo . ",
" . oo.@..@oooooo.@oo . ",
" . oo.#O..@ooooo.$oo . ",
" . oo.+o$..$oooo.@oo . ",
" . oo.$oo$..@ooo.@oo . ",
" . o+.+o%o@..$oo.@oo . ",
" . %o.$%ooo@..$o..%o . ",
" . o+.+o%%oo@..+.@oo . ",
" . %%.&*+*&%*.....+% . ",
" . +&.$+XOXOXX@..$+* . ",
" . X . XXXXXXXXXXXXX . ",
" . X...@XXXXXXXXXXX  . ",
" . XXXXXXXXXXXXXXXXX . ",
" . XXXXXXXXXXXXXXXXX . ",
" . XXXXXXXXXXXXXXXXX . ",
" . ................. . ",
" ................... . ",
" .                   . ",
" ..................... ",
"                       "};
