/* XPM */
static char * jpeg_xpm[] = {
"21 27 13 1",
" 	c #BCBEBC",
".	c #ACB6AC",
"X	c #64768C",
"o	c #747274",
"O	c #ACAEAC",
"+	c #343278",
"@	c #949694",
"#	c #ECEAEC",
"$	c #5C626C",
"%	c #646264",
"&	c #7C7E7C",
"*	c #ACBACC",
"=	c #040208",
"     . XooX   OOOOO .",
"     +++++oo  @     O",
"    o+++oOOoo.       ",
"  OO+++@O## +@    Oo@",
" OOo+++@  # oo  oOo@o",
" o@o+++OoOO++o@o@o@oo",
"Oooo+++@  O ++oooooo$",
"oo+o+++oOoOO++o$oooo+",
"oXo++++oO+O+++o+$o%$+",
"%oo+++++oOO+++o%o%+++",
"+oo++++o+o++++oo%o%++",
"%%++++oOO.o++++%%o%oo",
"o+++++o### o+++++%+%$",
"$+o+ooO#### o+++o$o%+",
"+o+o+oo#####O+++%o%+o",
"++++o++O##OO%++++o&oo",
"++++++++%Oo%+++++$oo+",
"+++++.          *   *",
"+++$+ =+++++++++++++=",
"+++$+ ++##+###+++##+=",
"+++++.=++#+#++#+#++#=",
"++++O +++#+#++#+#+++=",
"++++  =++#+###++#+##=",
"++++  #++#+#++++#++#=",
"++++# +##++#+++++##+=",
"+++++ ++++++++++++++=",
"+++++ ==============="};
