/* XPM */
static char *mini-edit[] = {
" 15 14 5 1",
"  c None s None",
". c black",
"# c #808080",
"i c white",
"o c blue",
"#########      ",
"#iiiiiii#.     ",
"#i#####i#i.   o",
"#iiiiiii#... oo",
"#i#####iiii.oo.",
"#iiiiiiiiii.oo.",
"#i########ioo. ",
"#iiiiiiiiioo.  ",
"#i#######.o.   ",
"#iiiiiii....   ",
"#i#####...i.   ",
"#iiiii.iiii.   ",
"#iiiiiiiiii.   ",
"............   "};
